<?xml version="1.0" standalone="no"?><svg width="233" height="48" viewBox="0 0 233 48" fill="none" xmlns="http://www.w3.org/2000/svg">
<path d="M26.9631 26.4276H9.33554V46.7925H0V1.17574H9.33554V18.5681H26.9631V1.17574H36.3268V46.7957H26.9631V26.4276Z" fill="black"/>
<path d="M71.9423 37.415H55.3238L52.2026 46.7925H42.3468L58.4451 1.17574H69.0937L85.0697 46.7957H74.8473L71.9391 37.4182L71.9423 37.415ZM69.3099 29.5555L63.6785 11.6054L57.8653 29.5555H69.3099Z" fill="black"/>
<path d="M83.4715 1.17574H93.5403L103.333 35.8083L113.217 1.17574H123.01L107.617 46.7957H98.7111L83.4715 1.17574Z" fill="black"/>
<path d="M128.604 1.17574H137.968V46.7957H128.604V1.17574Z" fill="black"/>
<path d="M184.05 46.7925H174.624L156.2 14.3879V46.7925H147.416V1.17574H157.3L175.263 33.0226V1.17574H184.047V46.7957L184.05 46.7925Z" fill="black"/>
<path d="M233 22.3203V40.8124C231.057 42.7138 228.246 44.3872 224.561 45.8323C220.875 47.2774 217.146 48 213.367 48C208.566 48 204.382 46.9827 200.813 44.9449C197.244 42.9072 194.561 39.9947 192.765 36.2076C190.97 32.4173 190.073 28.2974 190.073 23.8415C190.073 19.0086 191.076 14.7112 193.079 10.9558C195.081 7.19715 198.014 4.31639 201.878 2.31031C204.821 0.770104 208.484 0 212.865 0C218.566 0 223.016 1.20745 226.222 3.62551C231.527 7.62498 232.452 13.3295 232.646 15.3736L223.198 15.3862C222.552 13.1076 221.336 11.3075 219.553 9.98917C217.767 8.6708 215.539 8.01162 212.865 8.01162C208.817 8.01162 205.598 9.3078 203.207 11.9033C200.816 14.502 199.622 18.3526 199.622 23.4612C199.622 28.9724 200.832 33.1018 203.254 35.859C205.677 38.613 208.848 39.9884 212.771 39.9884C214.714 39.9884 216.66 39.6049 218.613 38.8348C220.562 38.0647 222.239 37.1298 223.636 36.0333V30.1418H213.022V22.3203H233Z" fill="black"/>
</svg>
