<?xml version="1.0" standalone="no"?><svg width="237" height="57" viewBox="0 0 237 57" fill="none" xmlns="http://www.w3.org/2000/svg">
<g clip-path="url(#clip0_228_909)">
<path d="M54.5334 23.466C53.7812 26.0262 54.3433 29.3953 53.8525 32.0733C53.5675 33.6361 52.5462 35.3717 52.2374 36.8246C50.8756 40.3429 49.5772 43.9948 48.358 47.7723C45.3415 52.9712 42.4439 48.8874 41.6047 44.8351C41.1692 42.7225 40.8921 40.3901 40.9634 38.2618C37.9865 39.1099 34.9542 38.3246 32.2862 36.911C29.6339 35.3246 26.8946 33.9503 24.0602 32.7723L22.651 36.5733L21.6693 37.1545C21.883 38.3717 21.3763 39.589 20.1492 40.8063C19.1991 42.0942 17.6236 44.2382 16.0877 44.3246C11.274 48.1178 3.52314 49.7042 7.90924 40.7827C8.68512 38.6387 9.10473 36.4476 9.18391 34.2251C10.1735 29.3717 10.3398 25.3272 13.7838 21.1885C13.3167 19.5471 16.0877 18.0157 17.4019 18.9031C20.8934 18.0864 25.1291 19.5393 28.7472 19.877C31.6845 20.1597 40.7021 20.5288 42.3885 17.5995L43.3148 17.5838C46.2283 20.2775 49.8227 22.5707 53.9 22.8063L54.5492 23.4581L54.5334 23.466Z" fill="#486D7B"/>
<path d="M62.0942 8.47382C62.1655 8.96073 61.8804 9.29058 61.2312 9.46335C62.7751 9.18063 63.7172 9.50262 64.0656 10.4293C64.0735 12.8482 66.6466 14.3089 67.6837 15.9738C69.0059 16.5864 69.9084 18.4791 68.6734 19.5628C68.4438 20.4188 67.5966 20.7408 66.1399 20.5131C63.353 19.8063 61.2708 20.2147 59.8932 21.7382L59.1411 21.8482C58.3415 21.4241 56.1801 18.8796 55.5071 19.3979C55.2617 19.5864 55.2459 20.1832 55.1984 20.2225C55.2221 20.5288 55.135 20.9058 54.8817 20.9372C52.3719 21.2277 46.822 17.5052 44.9615 15.7696L45.009 15.0079C47.1704 11.9136 51.0894 7.33508 51.8257 3.68324C52.0394 2.60733 51.7702 1.43717 52.2453 0.345549C52.8628 0.227748 53.1399 0.447643 53.5833 0.8089C54.4146 1.49215 54.4304 2.70942 55.1984 3.27487L56.6789 0.0235596C58.1752 1.43717 57.5577 4.28796 58.3415 5.87434C58.8957 6.98167 61.2154 7.64136 62.11 8.49738L62.0942 8.47382Z" fill="#486D7B"/>
<path d="M21.6693 37.1545C22.4689 35.5131 23.0152 33.699 23.4823 31.9319C29.4281 33.322 35.3738 40.3351 41.7155 37.1545C41.3909 40.2408 41.3671 46.0288 43.6789 48.4084C44.629 49.3901 45.4524 49.9791 46.6716 49.0681C48.2709 47.8744 50.3768 40.2016 51.3982 37.7749C51.604 37.288 51.3902 36.6754 52.2374 36.8325C52.2136 36.9346 52.2532 37.0524 52.2374 37.1623C50.3848 42.4084 50.4323 47.2775 52.372 51.7696L52.2374 52.4765C52.9262 53.5759 53.71 54.0864 52.7203 55.3979C51.3982 57.1571 47.02 57.055 45.2228 56.0105C41.1296 53.6309 41.3038 45.5576 41.0663 41.3874C35.7143 41.7723 30.6236 39.699 25.6199 38.1283C24.9549 38.9136 22.2393 37.8534 21.6772 37.1466L21.6693 37.1545Z" fill="#438B8F"/>
<path d="M16.0797 44.3246L16.2223 45.1099C12.9683 47.6859 11.0919 49.822 11.852 54.1492L11.1474 54.4319C10.4982 57.6518 2.94519 57.4162 0.85506 55.7592C-1.45675 53.9215 1.46468 47.3482 2.79476 45.3377C6.06455 40.3743 7.7509 41.2304 9.17599 34.2251C9.85686 35.9215 9.12057 38.6544 8.68513 40.4215C7.90924 43.6021 4.7503 47.7173 10.8386 46.4686L16.0797 44.3325V44.3246Z" fill="#438B8F"/>
<path d="M25.612 38.1283C23.8781 42.2906 18.1461 43.8456 17.481 48.4791C17.006 51.7932 18.5103 53.4032 14.1242 54.2749C13.1266 54.4712 12.1528 54.4398 11.1473 54.4162C11.3611 53.3796 11.0127 51.8168 11.1473 50.6702C11.4798 47.8194 14.2033 46.2723 16.0797 44.3168C18.2965 42 20.2204 40.1152 21.6692 37.1466C23.0864 36.966 24.3294 37.7199 25.612 38.1283Z" fill="#577B7F"/>
<path d="M59.1332 21.8325C60.5345 17.7723 65.6807 20.7644 68.6655 19.5471C68.8634 18.7147 69.3305 17.7487 70.3122 18.2435C70.5735 20.7958 69.3067 20.8351 68.3884 22.3665C67.0345 24.6361 67.2483 28.2958 63.551 27.9817C62.688 27.911 62.3476 26.8194 61.7696 26.2225C61.2629 25.6963 59.054 23.945 58.959 23.788C58.6186 23.2461 58.9353 22.3979 59.1332 21.8325Z" fill="#438B8F"/>
<path d="M45.0011 14.9921C45.2782 15.0785 48.4926 17.8351 49.593 18.4162C50.4639 18.8796 54.565 20.6309 55.1826 20.2068C55.8713 20.7723 55.3251 22.1702 55.0955 22.9005C54.9767 23.2775 54.5334 23.4267 54.5254 23.466C50.0443 23.5995 45.4445 20.6623 42.3647 17.5995C42.7922 16.8613 42.9506 14.3168 44.9932 14.9921H45.0011Z" fill="#438B8F"/>
<path d="M52.2374 52.4686C52.174 52.3743 51.8178 52.2408 51.6357 51.9424C49.0943 47.6859 50.3452 41.466 52.2374 37.1544C51.7148 39.9738 51.5486 44.2932 52.7282 46.9319C53.9079 49.5707 56.4493 50.1126 52.2374 52.4686Z" fill="#577B80"/>
<path d="M13.7759 21.1806C12.3587 20.0733 13.0396 12.1728 15.391 13.7199C15.8739 14.034 15.4701 18.3691 17.394 18.9031C15.5651 19.3272 14.9793 19.7435 13.7759 21.1885V21.1806Z" fill="#438B8F"/>
<path d="M62.0943 8.47382C63.939 8.34031 64.6832 9.61256 65.3799 11.0811C64.7544 11.2461 64.509 10.5785 64.0656 10.4293C62.5297 9.91884 61.3263 9.98952 59.7983 10.4293C59.8299 9.40837 61.1917 8.53664 62.0943 8.47382Z" fill="#438B8F"/>
<path d="M70.3123 18.2513C69.576 18.911 69.6155 19.1702 68.6655 19.555C68.7684 18.4084 68.2775 16.9319 67.6758 15.966C68.998 16.2644 70.1539 16.7592 70.3043 18.2513H70.3123Z" fill="#1F4B60"/>
<path d="M126.88 19.3037C126.864 18.0157 126.421 16.7591 125.606 15.9817C125.313 15.6989 124.996 15.4948 124.679 15.4084C124.125 15.2513 123.611 15.1728 123.151 15.1728C122.684 15.1728 122.178 15.2513 121.623 15.4084C121.307 15.5026 120.99 15.7068 120.697 15.9817C119.882 16.7591 119.438 18.0078 119.422 19.3037L119.082 50.5681C119.327 53.9764 121.259 55.6335 123.143 55.5628C125.036 55.6335 126.959 53.9764 127.205 50.5681L126.864 19.3037H126.88Z" fill="#438B8F"/>
<path d="M169.063 25.4058L160.774 42.2749L160.045 42.6911L151.495 25.2487C148.003 22.2251 143.483 24.9895 145.169 29.5602C149.587 36.9267 152.516 46.8613 157.068 53.945C158.652 56.411 161.724 56.4031 163.465 54.0785C168.137 47.8429 171.05 36.322 175.5 29.5131C177.043 25.5785 172.095 22.1859 169.055 25.4058H169.063Z" fill="#438B8F"/>
<path d="M233.144 23.4895C230.413 23.1204 227.325 23.5681 224.792 24.6047C224.222 24.8403 222.282 26.3482 221.87 26.0497C221.791 25.9948 221.712 25.3822 221.356 25.0995C219.044 23.2304 215.56 23.7094 214.959 26.9136V52.9476C216.075 56.6387 220.699 56.7487 222.1 53.2225C222.717 48.4791 221.514 42.5497 222.155 37.9555C222.535 35.2147 227.515 31.2251 230.262 30.9738C231.292 30.8796 232.139 31.3508 233.168 31.3037C238.116 31.0759 238.449 24.212 233.152 23.4974L233.144 23.4895Z" fill="#438B8F"/>
<path d="M139.611 24.6361C139.318 24.4162 139.001 24.2592 138.685 24.1885C138.131 24.0628 137.616 24 137.157 24C136.69 24 136.183 24.0628 135.629 24.1885C135.312 24.2592 134.995 24.4162 134.702 24.6361C133.887 25.2408 133.444 26.2225 133.428 27.2277L133.087 51.6518C133.333 54.3141 135.265 55.6099 137.149 55.555C139.041 55.6099 140.965 54.3141 141.21 51.6518L140.87 27.2277C140.854 26.2147 140.411 25.2408 139.595 24.6361H139.611Z" fill="#438B8F"/>
<path d="M136.294 13.4372C131.251 14.3482 131.844 22.9162 137.766 22.4136C143.68 21.9188 142.968 12.2277 136.294 13.4372Z" fill="#438B8F"/>
<path d="M176.845 42.1649C178.183 55.4215 195.047 61.7906 204.896 52.7827C208.862 49.1544 206.725 44.7644 201.444 46.0995C200.146 46.4293 198.744 47.8272 197.525 48.4005C192.545 50.7487 186.956 48.3298 185.024 43.3351H208.522C208.696 43.3351 210.058 41.788 210.185 41.3953C211.182 38.199 209.179 32.6073 207.176 30C196.71 16.3194 175.096 24.801 176.838 42.1571L176.845 42.1649ZM185.681 35.8508C188.729 29.0733 198.42 29.5209 201.784 35.8508H185.681Z" fill="#438B8F"/>
<path d="M96.5417 23.2304C73.1466 25.2173 78.1898 61.7042 101.815 56.4895C121.932 52.0524 117.419 21.4555 96.5417 23.2304ZM103.16 47.7251C97.4364 51.6911 89.638 47.89 88.8067 41.144C88.2604 36.7225 91.6727 31.7592 96.1934 31.0366C106.153 29.4581 111.339 42.055 103.16 47.7251Z" fill="#438B8F"/>
</g>
<defs>
<clipPath id="clip0_228_909">
<rect width="237" height="57" fill="white"/>
</clipPath>
</defs>
</svg>
