<svg xmlns="http://www.w3.org/2000/svg" width="151" height="24" viewBox="0 0 151 24" fill="none">
<g clip-path="url(#clip0_355_930)">
<path d="M34.8225 0.00708687V0H8.21605C3.67809 0 0 3.67809 0 8.21605V15.1305C0 19.6661 3.67809 23.3442 8.21369 23.3442C8.88694 23.3442 11.4902 23.3442 11.4902 23.3442C11.4902 22.7819 11.4571 22.1158 11.6319 20.8874C11.776 19.8763 11.9414 19.0944 12.2178 18.5582C12.4894 18.0243 12.9808 17.6085 13.5265 17.3109C14.1997 16.9542 15.1777 16.829 16.4534 16.8526H19.3401V23.3418H23.0489V16.8526H25.9356C27.2112 16.829 28.1892 16.9542 28.8625 17.3109C29.4082 17.6085 29.8995 18.0219 30.1712 18.5582C30.4476 19.092 30.6129 19.8763 30.757 20.8874C30.9318 22.1134 30.8988 22.7843 30.8988 23.3465C30.8988 23.3465 33.8327 23.3418 34.5296 23.3418C34.5296 23.3418 34.5367 23.3418 34.5391 23.3418C39.077 23.3418 42.7551 19.6637 42.7551 15.1257V8.21132C42.7551 3.77258 39.2282 0.155911 34.8225 0.00708687ZM40.1613 15.1328C40.1613 18.14 37.7943 20.5968 34.8225 20.7433V20.7504H34.7871C34.7847 20.6771 34.7824 20.6441 34.7824 20.6441C34.7115 19.907 34.6335 19.3542 34.5438 18.9739C34.4469 18.5889 34.291 18.1967 34.076 17.7904C33.7878 17.2683 33.4689 16.8738 33.1193 16.6093C32.7697 16.34 32.2547 16.0943 31.5697 15.877C32.4272 15.5746 33.1051 15.1541 33.6154 14.606C34.4422 13.7013 34.8462 12.4233 34.8249 10.7697C34.8131 9.94761 34.6217 9.20112 34.2532 8.52078C33.8847 7.84517 33.3744 7.3042 32.713 6.89553C31.7421 6.28842 30.5562 6.10652 28.1254 6.10652H27.0766C25.0214 6.18448 23.6418 7.28294 23.6418 9.11608H28.0498C28.7136 9.10899 29.1861 9.15388 29.479 9.25073C30.3129 9.53893 30.7381 10.2122 30.7523 11.2705C30.7641 12.2225 30.4948 12.8934 29.9491 13.2902C29.5877 13.5501 28.9853 13.7509 28.116 13.7627H14.28C13.4131 13.7509 12.8083 13.5501 12.4469 13.2902C11.9012 12.8934 11.6319 12.2225 11.6437 11.2705C11.6579 10.2122 12.0831 9.54129 12.917 9.25073C13.2099 9.15624 13.6824 9.10899 14.3462 9.11608H18.7542C18.7542 7.28294 17.3746 6.18448 15.3195 6.10652H14.273C11.8422 6.10652 10.6563 6.28842 9.68539 6.89553C9.02395 7.3042 8.5137 7.84517 8.14518 8.52078C7.77666 9.20112 7.58532 9.94997 7.5735 10.7697C7.55224 12.4233 7.9562 13.7013 8.783 14.606C9.29089 15.1565 9.97123 15.5746 10.8287 15.877C10.1437 16.0943 9.6287 16.34 9.27908 16.6093C8.9271 16.8738 8.61055 17.2683 8.32235 17.7904C8.10738 18.1944 7.95147 18.5889 7.85462 18.9739C7.76485 19.3542 7.68453 19.907 7.61603 20.6441C7.61603 20.6441 7.61603 20.6677 7.6113 20.7173C4.79545 20.4126 2.60324 18.029 2.60088 15.1328V8.21605C2.60088 5.112 5.11672 2.5938 8.22313 2.5938H34.8296V2.60088C37.8037 2.74734 40.1684 5.20413 40.1684 8.21605V15.1328H40.1613ZM151 8.96017V2.58671H133.16V12.9666H143.23V16.7628H140.927V14.3887H133.16V20.7598H151V10.3823H140.93V6.58607H143.233V8.96017H151ZM92.2215 20.7598H110.061V14.3887H102.294V16.7628H99.9911V6.58607H102.294V8.96017H110.061V2.58671H92.2215V20.7598ZM61.3605 10.3823H58.3226V2.58671H50.5554V20.7598H58.3226V12.9666H61.3605V20.7598H69.1277V2.58671H61.3605V10.3799V10.3823ZM122.73 2.58671V10.6067H120.413V2.58671H112.646V20.7598H120.413V13.1934H122.73V20.7598H132.161L126.973 11.6744L132.161 2.58907H122.73V2.58671ZM71.7144 20.7598H89.6371V2.58671H71.7144V20.7598ZM79.4816 6.58607H81.8676V16.7628H79.4816V6.58607Z" fill="black"/>
</g>
<defs>
<clipPath id="clip0_355_930">
<rect width="151" height="23.3465" fill="white"/>
</clipPath>
</defs>
</svg>